<svg width="153" height="35" viewBox="0 0 153 35" fill="none" xmlns="http://www.w3.org/2000/svg">
<g clip-path="url(#clip0_14_2)">
<path d="M34.7324 16.5371V29H12.2676V22.707H15.0801V7.2207H12.2676V1.0332H26.875V7.2207H24.0801V22.707H28.5801L30.2676 16.5371H34.7324ZM52.1172 22.8125V29H37.5098V22.8125H40.3223V7.2207H37.5098V1.0332H52.1172V7.2207H49.3223V22.8125H52.1172ZM67.3398 29H54.4199V22.8125H57.2324V7.2207H54.4199V1.0332H67.375C72.4609 1.0332 76.3516 2.21094 79.0469 4.56641C81.7539 6.91016 83.1074 10.3848 83.1074 14.9902C83.1074 19.4785 81.7656 22.9355 79.082 25.3613C76.3984 27.7871 72.4844 29 67.3398 29ZM66.2324 7.2207V22.8125H67.3398C68.6523 22.8125 69.7246 22.4785 70.5566 21.8105C71.3887 21.1309 72.0039 20.1992 72.4023 19.0156C72.8008 17.832 73 16.4902 73 14.9902C73 12.6934 72.5547 10.8242 71.6641 9.38281C70.7734 7.94141 69.332 7.2207 67.3398 7.2207H66.2324ZM106.521 22.707V29H91.2637V22.707H93.9531V17.5566L86.5879 7.2207H84.6016V1.0332H99.5781V7.2207H97.9961L101.195 11.8965L103.709 7.2207H101.16V1.0332H112.357V7.2207H109.193L103.762 16.6074V22.707H106.521ZM123.59 22.8125V29H111.25V22.8125H114.027L118.844 7.2207H115.17V1.0332H132.59L138.83 22.8125H141.59V29H125.857V22.8125H128.143L127.387 19.8242H121.041L120.25 22.8125H123.59ZM126.543 15.5703L124.504 7.00977L121.938 15.5703H126.543Z" fill="white"/>
</g>
<defs>
<clipPath id="clip0_14_2">
<rect width="153" height="35" fill="white"/>
</clipPath>
</defs>
</svg>
